<svg width="16" height="16" viewBox="0 0 16 16" fill="none" xmlns="http://www.w3.org/2000/svg">
<path d="M5.99996 14C6.53063 14.4147 7.23196 14.6667 7.99996 14.6667C8.76796 14.6667 9.4693 14.4147 9.99996 14M1.68663 9.59604C1.54463 10.498 2.17863 11.124 2.95463 11.436C5.92996 12.6327 10.07 12.6327 13.0453 11.436C13.8213 11.124 14.4553 10.498 14.3133 9.59604C14.2266 9.04137 13.7953 8.58004 13.476 8.12937C13.058 7.53137 13.0166 6.88004 13.016 6.18604C13.0166 3.50671 10.7713 1.33337 7.99996 1.33337C5.22863 1.33337 2.9833 3.50671 2.9833 6.18671C2.9833 6.88004 2.94196 7.53204 2.5233 8.12937C2.20463 8.58004 1.77396 9.04137 1.68663 9.59604Z" stroke="#8597A8" stroke-linecap="round" stroke-linejoin="round"/>
</svg>
